<?xml version="1.0" encoding="iso-8859-1"?>
<!-- Generator: Adobe Illustrator 19.0.0, SVG Export Plug-In . SVG Version: 6.00 Build 0)  -->
<svg version="1.1" id="Layer_1" xmlns="http://www.w3.org/2000/svg" xmlns:xlink="http://www.w3.org/1999/xlink" x="0px" y="0px"
	 viewBox="0 0 473.654 473.654" style="enable-background:new 0 0 473.654 473.654;" xml:space="preserve">
<circle style="fill:#EDC92C;" cx="236.827" cy="236.827" r="236.827"/>
<path style="fill:#FFFFFF;" d="M424.288,216.091c-47.657-44.37-95.314-88.74-142.971-133.114
	c-26.405-24.58-66.015,15.156-39.46,39.883c30.5,28.395,60.996,56.789,91.496,85.184c-0.509-0.022-0.995-0.075-1.518-0.075
	c-83.101,0-166.202,0-249.302,0c-36.225,0-36.543,56.109-0.404,56.109c83.101,0,166.202,0,249.302,0c0.681,0,1.324-0.06,1.974-0.097
	c-30.586,28.473-61.172,56.95-91.762,85.423c-26.484,24.655,13.425,64.089,39.883,39.46
	c47.657-44.366,95.318-88.736,142.975-133.103C435.443,245.574,435.137,226.192,424.288,216.091z"/>
<g>
</g>
<g>
</g>
<g>
</g>
<g>
</g>
<g>
</g>
<g>
</g>
<g>
</g>
<g>
</g>
<g>
</g>
<g>
</g>
<g>
</g>
<g>
</g>
<g>
</g>
<g>
</g>
<g>
</g>
</svg>
