<svg xmlns="http://www.w3.org/2000/svg" version="1.1" xmlns:xlink="http://www.w3.org/1999/xlink" xmlns:svgjs="http://svgjs.com/svgjs" width="1440" height="560" preserveAspectRatio="none" viewBox="0 0 1440 560"><g mask="url(&quot;#SvgjsMask1045&quot;)" fill="none"><path d="M1179.843,134.089C1205.576,135.568,1235.614,133.463,1248.18,110.959C1260.587,88.74,1245.372,63.01,1231.415,41.731C1219.207,23.118,1202.077,7.831,1179.843,6.77C1155.691,5.618,1131.058,15.42,1118.98,36.366C1106.911,57.296,1111.112,83.306,1123.884,103.814C1135.901,123.109,1157.149,132.784,1179.843,134.089" fill="rgba(0, 14, 255, 0.4)" class="triangle-float1"></path><path d="M96.6620255034933 388.96525759522063L-7.311810719089351 446.59889612766597 154.29566403593864 492.93909381780327z" fill="rgba(0, 14, 255, 0.4)" class="triangle-float2"></path><path d="M1261.535,399.268C1312.111,399.641,1348.433,354.754,1370.992,309.487C1390.913,269.513,1388.466,224.482,1368.568,184.497C1345.793,138.731,1312.522,93.219,1261.535,89.535C1205.282,85.47,1148.641,116.143,1123.88,166.817C1101.226,213.179,1128.548,263.492,1154.841,307.892C1180.413,351.075,1211.349,398.898,1261.535,399.268" fill="rgba(0, 14, 255, 0.4)" class="triangle-float1"></path><path d="M1250.266,349.515C1292.128,352.113,1329.842,325.104,1350.692,288.71C1371.417,252.534,1373.354,207.8,1351.953,172.02C1331.073,137.112,1290.935,120.038,1250.266,120.809C1210.996,121.553,1173.07,140.856,1155.042,175.751C1138.2,208.349,1151.702,245.277,1169.335,277.454C1187.94,311.404,1211.626,347.117,1250.266,349.515" fill="rgba(0, 14, 255, 0.4)" class="triangle-float2"></path><path d="M862.92,564.028C894.109,564.04,922.137,548.604,939.995,523.034C961.436,492.334,981.535,453.29,962.969,420.771C944.322,388.11,900.392,384.829,862.92,388.036C831.525,390.723,804.313,408.314,788.7,435.684C773.24,462.787,770.325,495.965,785.945,522.976C801.547,549.956,831.753,564.016,862.92,564.028" fill="rgba(0, 14, 255, 0.4)" class="triangle-float3"></path><path d="M264.1071389528711 305.4453081510189L316.3221809269888 233.57746840119978 244.4543411771697 181.36242642708208 192.23929920305198 253.23026617690118z" fill="rgba(0, 14, 255, 0.4)" class="triangle-float1"></path><path d="M700.2724164377071 112.06167368691231L579.9263904869617 216.67687799478273 684.5415947948321 337.0229039455281 804.8876207455775 232.40769963765771z" fill="rgba(0, 14, 255, 0.4)" class="triangle-float3"></path><path d="M73.62055348670516 504.7583143985927L146.48252150277838 464.37026602062116 49.4694649277845 375.2713381854971z" fill="rgba(0, 14, 255, 0.4)" class="triangle-float3"></path><path d="M260.4389167819005 148.56816004228085L344.03772148588325 113.08257278021514 308.5521342238175 29.483768076232394 224.9533295198348 64.96935533829812z" fill="rgba(0, 14, 255, 0.4)" class="triangle-float3"></path></g><defs><mask id="SvgjsMask1045"><rect width="1440" height="560" fill="#ffffff"></rect></mask><style>
            @keyframes float1 {
                0%{transform: translate(0, 0)}
                50%{transform: translate(-10px, 0)}
                100%{transform: translate(0, 0)}
            }

            .triangle-float1 {
                animation: float1 5s infinite;
            }

            @keyframes float2 {
                0%{transform: translate(0, 0)}
                50%{transform: translate(-5px, -5px)}
                100%{transform: translate(0, 0)}
            }

            .triangle-float2 {
                animation: float2 4s infinite;
            }

            @keyframes float3 {
                0%{transform: translate(0, 0)}
                50%{transform: translate(0, -10px)}
                100%{transform: translate(0, 0)}
            }

            .triangle-float3 {
                animation: float3 6s infinite;
            }
        </style></defs></svg>