<svg xmlns="http://www.w3.org/2000/svg" version="1.1" xmlns:xlink="http://www.w3.org/1999/xlink" xmlns:svgjs="http://svgjs.com/svgjs" width="1440" height="560" preserveAspectRatio="none" viewBox="0 0 1440 560"><g mask="url(&quot;#SvgjsMask1003&quot;)" fill="none"><path d="M373.94 477.77a34.39 34.39 0 1 0 54.49 41.97z" stroke="#e73635"></path><path d="M1396.67 69.31L1439.85 69.31L1439.85 94.35L1396.67 94.35z" stroke="#d3b714"></path><path d="M916.41 296.02 a4.46 4.46 0 1 0 8.92 0 a4.46 4.46 0 1 0 -8.92 0z" fill="#037b0b"></path><path d="M665.4 89.29a1.99 1.99 0 1 0 3.96-0.42z" stroke="#d3b714"></path><path d="M134.21 177.61a40.27 40.27 0 1 0 76.68-24.63z" fill="#d3b714"></path><path d="M356.7 525.57a22.35 22.35 0 1 0 43.5-10.26z" fill="#d3b714"></path><path d="M787.19 333.25a51.53 51.53 0 1 0-63.06 81.52z" stroke="#e73635"></path><path d="M1088.77 367.95a22.28 22.28 0 1 0-41.94-15.05z" stroke="#d3b714"></path><path d="M605.68 273.8L623.75 273.8L623.75 291.87L605.68 291.87z" stroke="#e73635"></path><path d="M1278.35 574.56a41.9 41.9 0 1 0-56.41-61.97z" stroke="#d3b714"></path><path d="M475.84 294.09a4.16 4.16 0 1 0 3.57 7.51z" fill="#037b0b"></path><path d="M205.34 316.15a13.94 13.94 0 1 0-4.29 27.55z" fill="#e73635"></path><path d="M877.61 26.84a51.21 51.21 0 1 0-14.45 101.4z" fill="#037b0b"></path><path d="M1224.32 409.91L1253.86 409.91L1253.86 439.45L1224.32 439.45z" stroke="#037b0b"></path><path d="M949.46 375.56 a19.15 19.15 0 1 0 38.3 0 a19.15 19.15 0 1 0 -38.3 0z" fill="#e73635"></path><path d="M989.57 179.39L1040 179.39L1040 229.82L989.57 229.82z" fill="#e73635"></path><path d="M1135.15 535.58 a47.61 47.61 0 1 0 95.22 0 a47.61 47.61 0 1 0 -95.22 0z" stroke="#e73635"></path><path d="M117.15 428.28L139.1 428.28L139.1 450.23L117.15 450.23z" fill="#e73635"></path><path d="M844.51 438.78L874 438.78L874 468.27L844.51 468.27z" fill="#d3b714"></path><path d="M568.31 281.45a32.24 32.24 0 1 0-24.96 59.45z" fill="#e73635"></path><path d="M109.26 18.18L112.07 18.18L112.07 50.35L109.26 50.35z" fill="#037b0b"></path><path d="M1297.41 295.53L1300.37 295.53L1300.37 298.49L1297.41 298.49z" fill="#e73635"></path><path d="M1431.75 392.35L1483.93 392.35L1483.93 444.53L1431.75 444.53z" stroke="#037b0b"></path><path d="M288.78 158.67a10.43 10.43 0 1 0 11.9 17.13z" fill="#037b0b"></path><path d="M1146.05 334.11 a38 38 0 1 0 76 0 a38 38 0 1 0 -76 0z" stroke="#d3b714"></path><path d="M72.68 108.51 a15.84 15.84 0 1 0 31.68 0 a15.84 15.84 0 1 0 -31.68 0z" stroke="#d3b714"></path><path d="M241.64 535.93a38.21 38.21 0 1 0-34.09-68.39z" fill="#d3b714"></path><path d="M1397.07 173.85L1410.46 173.85L1410.46 187.24L1397.07 187.24z" fill="#e73635"></path><path d="M964.27 121.69a49.21 49.21 0 1 0 31.08 93.38z" stroke="#d3b714"></path><path d="M830.79 461.19L871.92 461.19L871.92 496.5L830.79 496.5z" fill="#037b0b"></path><path d="M860.65 153.41L863.32 153.41L863.32 188.64L860.65 188.64z" fill="#037b0b"></path><path d="M869.05 363.6L904.05 363.6L904.05 393.57L869.05 393.57z" fill="#d3b714"></path><path d="M541.53 27.69L577.5 27.69L577.5 78.25L541.53 78.25z" fill="#e73635"></path></g><defs><mask id="SvgjsMask1003"><rect width="1440" height="560" fill="#ffffff"></rect></mask></defs></svg>