<svg xmlns="http://www.w3.org/2000/svg" version="1.1" xmlns:xlink="http://www.w3.org/1999/xlink" xmlns:svgjs="http://svgjs.com/svgjs" width="1440" height="560" preserveAspectRatio="none" viewBox="0 0 1440 560"><g mask="url(&quot;#SvgjsMask1019&quot;)" fill="none"><path d="M845.22 352.73 a12.31 12.31 0 1 0 24.62 0 a12.31 12.31 0 1 0 -24.62 0z" stroke="#e73635"></path><path d="M1314.33 157.47L1325.22 157.47L1325.22 168.36L1314.33 168.36z" fill="#e73635"></path><path d="M264.99 179.21a24.78 24.78 0 1 0-38.45 31.26z" fill="#037b0b"></path><path d="M993.57 270.66L1027.19 270.66L1027.19 285.24L993.57 285.24z" fill="#037b0b"></path><path d="M741.9 493.52L775.33 493.52L775.33 520.94L741.9 520.94z" fill="#d3b714"></path><path d="M1206.53 134.47 a9.79 9.79 0 1 0 19.58 0 a9.79 9.79 0 1 0 -19.58 0z" fill="#e73635"></path><path d="M1393.24 505.34 a14.24 14.24 0 1 0 28.48 0 a14.24 14.24 0 1 0 -28.48 0z" stroke="#d3b714"></path><path d="M1109.14 203.71L1150.97 203.71L1150.97 242.76L1109.14 242.76z" stroke="#e73635"></path><path d="M474.65 362.08L503.17 362.08L503.17 390.6L474.65 390.6z" stroke="#d3b714"></path><path d="M962.37 38.44 a12.26 12.26 0 1 0 24.52 0 a12.26 12.26 0 1 0 -24.52 0z" fill="#037b0b"></path><path d="M94.81 382.45a48.27 48.27 0 1 0 96.54 1.2z" stroke="#037b0b"></path><path d="M148.27 79.21a9.43 9.43 0 1 0 11.27 15.12z" stroke="#d3b714"></path><path d="M459.99 333.3L510.16 333.3L510.16 383.47L459.99 383.47z" stroke="#d3b714"></path><path d="M300.1 377.05L336.42 377.05L336.42 407.61L300.1 407.61z" fill="#e73635"></path><path d="M1112.99 26.44L1163.16 26.44L1163.16 76.61L1112.99 76.61z" stroke="#037b0b"></path><path d="M779.89 356.4a11.99 11.99 0 1 0-16.5-17.41z" stroke="#e73635"></path><path d="M368.86 176.63L412.14 176.63L412.14 221.87L368.86 221.87z" stroke="#d3b714"></path><path d="M1206.88 238.33L1232.91 238.33L1232.91 289.57L1206.88 289.57z" fill="#037b0b"></path><path d="M988.09 153.65L993.88 153.65L993.88 206.45L988.09 206.45z" stroke="#e73635"></path><path d="M1105.18 476.35L1124.2 476.35L1124.2 479.2L1105.18 479.2z" fill="#e73635"></path><path d="M269.68 102.57L316.85 102.57L316.85 103.46L269.68 103.46z" stroke="#d3b714"></path><path d="M1408.44 107.4 a21.64 21.64 0 1 0 43.28 0 a21.64 21.64 0 1 0 -43.28 0z" stroke="#d3b714"></path><path d="M902.92 396.23a31.56 31.56 0 1 0-63.11-0.84z" fill="#e73635"></path><path d="M1068.38 300.69L1123.79 300.69L1123.79 356.1L1068.38 356.1z" fill="#037b0b"></path><path d="M15.66 549.65L50.49 549.65L50.49 573.38L15.66 573.38z" stroke="#037b0b"></path><path d="M8.99 25.57 a5.39 5.39 0 1 0 10.78 0 a5.39 5.39 0 1 0 -10.78 0z" fill="#e73635"></path><path d="M251.79 345.09 a13.3 13.3 0 1 0 26.6 0 a13.3 13.3 0 1 0 -26.6 0z" stroke="#d3b714"></path><path d="M1129.33 94.14a34.66 34.66 0 1 0 14.69-67.74z" fill="#037b0b"></path><path d="M1198.6 330.6 a28.95 28.95 0 1 0 57.9 0 a28.95 28.95 0 1 0 -57.9 0z" stroke="#d3b714"></path><path d="M1307.66 361.83 a32.64 32.64 0 1 0 65.28 0 a32.64 32.64 0 1 0 -65.28 0z" stroke="#e73635"></path><path d="M375.3 57.34a9.51 9.51 0 1 0 19.02-0.14z" stroke="#e73635"></path><path d="M858.73 382.62 a45.57 45.57 0 1 0 91.14 0 a45.57 45.57 0 1 0 -91.14 0z" stroke="#e73635"></path><path d="M969.18 252.14L1016.98 252.14L1016.98 299.94L969.18 299.94z" stroke="#037b0b"></path></g><defs><mask id="SvgjsMask1019"><rect width="1440" height="560" fill="#ffffff"></rect></mask></defs></svg>